<svg width="170" height="32" viewBox="0 0 170 32" fill="none" xmlns="http://www.w3.org/2000/svg">
<path fill-rule="evenodd" clip-rule="evenodd" d="M8.61351 6.56465C9.55944 6.00725 10.7514 6.24299 11.8337 6.39298C11.9734 6.41235 12.1161 6.42235 12.261 6.42235C13.9986 6.42235 15.4072 4.98466 15.4072 3.21117C15.4072 1.43769 13.9986 0 12.261 0C11.0611 0 10.018 0.685609 9.48742 1.69395C9.07578 2.47621 8.66292 3.32437 7.90949 3.76834L0.786377 7.96578C0.299656 8.25259 -0.000177322 8.78263 -0.000177322 9.35626V21.9526C-0.000177322 22.5262 0.299655 23.0562 0.786377 23.343L6.11026 26.4802C6.72207 26.8408 7.50239 26.6641 7.90752 26.0734V26.0734C8.36583 25.4052 8.16473 24.4797 7.47261 24.0719L4.00268 22.0271C3.21175 21.5611 2.72453 20.6997 2.72453 19.7676V11.5412C2.72453 10.6091 3.21175 9.74775 4.00268 9.28168L8.61351 6.56465ZM12.2609 4.41536H12.261C12.9126 4.41536 13.4408 3.87623 13.4408 3.21117C13.4408 2.54612 12.9126 2.00698 12.261 2.00698C11.6094 2.00698 11.0812 2.54612 11.0812 3.21117C11.0812 3.51072 11.1883 3.78472 11.3657 3.99542C11.582 4.25249 11.9028 4.41533 12.2609 4.41536Z" fill="white"/>
<path fill-rule="evenodd" clip-rule="evenodd" d="M16.536 25.4353C15.5537 25.9927 14.3159 25.757 13.1919 25.607C13.0468 25.5877 12.8987 25.5777 12.7482 25.5777C10.9437 25.5777 9.48096 27.0153 9.48096 28.7888C9.48096 30.5623 10.9437 32 12.7482 32C13.9943 32 15.0774 31.3144 15.6284 30.3061C16.0559 29.5238 16.4847 28.6756 17.2671 28.2317L24.6641 24.0342C25.1696 23.7474 25.481 23.2174 25.481 22.6437V10.0474C25.481 9.47382 25.1696 8.94377 24.6641 8.65696L19.1355 5.51976C18.5002 5.15923 17.6898 5.33585 17.2691 5.92656V5.92656C16.7932 6.5948 17.002 7.52029 17.7207 7.92813L21.3241 9.97286C22.1455 10.4389 22.6515 11.3003 22.6515 12.2324V20.4588C22.6515 21.3909 22.1455 22.2523 21.3241 22.7183L16.536 25.4353ZM12.7483 27.5846H12.7482C12.0715 27.5846 11.523 28.1238 11.523 28.7888C11.523 29.4539 12.0715 29.993 12.7482 29.993C13.4248 29.993 13.9734 29.4539 13.9734 28.7888C13.9734 28.4893 13.8621 28.2153 13.678 28.0046C13.4533 27.7475 13.1201 27.5847 12.7483 27.5846Z" fill="white"/>
<path fill-rule="evenodd" clip-rule="evenodd" d="M6.85905 11.4204C7.44753 11.0886 8.20001 11.2855 8.53977 11.8601L9.13396 12.865C9.25068 13.0624 9.18141 13.3148 8.97926 13.4287C8.84849 13.5025 8.76793 13.6387 8.76793 13.7861V17.2592C8.76793 17.6884 9.00244 18.085 9.38312 18.2996L12.4636 20.0362C12.5943 20.1099 12.7554 20.1099 12.8862 20.0362C13.0884 19.9222 13.3469 19.9898 13.4636 20.1872L14.0578 21.1921C14.3975 21.7667 14.1959 22.5014 13.6074 22.8332L13.4951 22.8965C12.9876 23.1826 12.3622 23.1826 11.8546 22.8965L6.74676 20.017C6.23919 19.7309 5.92651 19.2021 5.92651 18.6298V12.8709C5.92651 12.2986 6.23919 11.7698 6.74676 11.4837L6.85905 11.4204Z" fill="white"/>
<path fill-rule="evenodd" clip-rule="evenodd" d="M16.5029 18.0016C16.3301 18.0984 16.2709 18.3127 16.3707 18.4803L17.0043 19.5449C17.3478 20.122 18.1084 20.3197 18.7033 19.9865L18.7267 19.9734C19.2397 19.6861 19.5558 19.155 19.5558 18.5803V12.7969C19.5558 12.2222 19.2397 11.6911 18.7267 11.4038L13.5633 8.51203C13.0502 8.22467 12.418 8.22467 11.905 8.51203L11.8816 8.5251C11.2867 8.85826 11.0829 9.59612 11.4264 10.1732L12.06 11.2378C12.1598 11.4054 12.3807 11.4628 12.5535 11.3661C12.6653 11.3035 12.803 11.3035 12.9147 11.3661L16.0617 13.1285C16.4465 13.344 16.6835 13.7423 16.6835 14.1733V17.6981C16.6835 17.8233 16.6147 17.939 16.5029 18.0016Z" fill="white"/>
<path fill-rule="evenodd" clip-rule="evenodd" d="M111.097 5.17697H107.616V25.1797H111.097V5.17697ZM55.7934 5.47979C55.2107 5.47979 54.7051 5.69333 54.2861 6.11298C53.8671 6.53262 53.6541 7.03864 53.6541 7.62169C53.6541 8.20473 53.8671 8.71075 54.2861 9.13039C54.7051 9.55004 55.2107 9.76358 55.7934 9.76358C56.3761 9.76358 56.8816 9.55004 57.3007 9.13039C57.7197 8.71075 57.9326 8.20473 57.9326 7.62169C57.9326 7.03864 57.7197 6.53262 57.3007 6.11298C56.8816 5.69333 56.3761 5.47979 55.7934 5.47979ZM77.2483 5.47979C76.6656 5.47979 76.16 5.69333 75.741 6.11298C75.322 6.53262 75.109 7.03865 75.109 7.62169C75.109 8.20472 75.322 8.71075 75.741 9.13039C76.16 9.55004 76.6656 9.76358 77.2483 9.76358C77.831 9.76358 78.3366 9.55004 78.7556 9.13039C79.1746 8.71075 79.3876 8.20473 79.3876 7.62169C79.3876 7.03864 79.1746 6.53262 78.7556 6.11298C78.3366 5.69333 77.831 5.47979 77.2483 5.47979ZM41.8066 5.53484H35.4343V25.1797H41.8066C43.7538 25.1797 45.443 24.8174 46.8676 24.0853L46.8685 24.0848C48.3138 23.3328 49.4223 22.2223 50.1911 20.758C50.9787 19.2925 51.3673 17.4893 51.3673 15.3572C51.3673 13.2071 50.9788 11.3947 50.191 9.92895C49.4222 8.46437 48.3133 7.36269 46.8672 6.62902C45.4427 5.897 43.7536 5.53484 41.8066 5.53484ZM87.2123 6.91128H83.7584V11.5636H81.2296V14.6086H83.7584V21.7164C83.7584 23.1651 84.0997 24.201 84.855 24.7325L84.8569 24.7338C85.5972 25.2411 86.6393 25.4825 87.9592 25.4825C88.4646 25.4825 88.9697 25.4357 89.4744 25.3423C89.9764 25.2676 90.4023 25.1641 90.7486 25.0292L90.8681 24.9827V21.7031L90.5903 21.8548C90.4053 21.9559 90.1353 22.0616 89.7742 22.1701L89.7716 22.1709C89.4409 22.2755 89.1118 22.3274 88.7838 22.3274C88.2382 22.3274 87.8429 22.2214 87.5752 22.0331C87.3554 21.8664 87.2123 21.5219 87.2123 20.918V14.6086H90.8681V11.5636H87.2123V6.91128ZM38.9707 21.8594V8.85513H41.5592C43.5008 8.85513 44.9862 9.41208 46.0419 10.5046L46.043 10.5057C47.1153 11.5973 47.666 13.2038 47.666 15.3572C47.666 17.4916 47.1156 19.0993 46.0419 20.2099C44.9862 21.3024 43.5008 21.8594 41.5592 21.8594H38.9707ZM66.1195 11.2333C64.9384 11.2333 63.8727 11.4776 62.9267 11.9703L62.9253 11.971C61.9934 12.4662 61.262 13.1998 60.7323 14.1662C60.2002 15.1369 59.9396 16.3354 59.9396 17.7522C59.9396 19.1514 60.2004 20.349 60.7316 21.337L60.7323 21.3383C61.2617 22.3041 61.9922 23.0462 62.9226 23.5597L62.9267 23.5617C63.8727 24.0544 64.9384 24.2987 66.1195 24.2987C67.3278 24.2987 68.3589 23.9331 69.2028 23.2003V23.5057C69.2028 24.9414 68.9472 25.9454 68.4725 26.5568C68.0049 27.1589 67.271 27.4752 66.2294 27.4752C65.4294 27.4752 64.778 27.315 64.2647 27.0065C63.7492 26.6968 63.3126 26.2196 62.9588 25.5641L62.8613 25.3836L60.0399 27.2467L60.1307 27.4001C60.787 28.5082 61.6172 29.333 62.6232 29.8652C63.6274 30.3966 64.832 30.6579 66.2294 30.6579C68.3909 30.6579 70.0199 30.0315 71.0744 28.7454C72.1371 27.4717 72.6567 25.7172 72.6567 23.5057V11.5636H69.6035L69.5155 12.5546C68.6198 11.6732 67.4834 11.2333 66.1195 11.2333ZM98.6727 11.2333C97.5164 11.2333 96.3966 11.4201 95.3143 11.7937C94.2408 12.146 93.3193 12.5648 92.5523 13.0519L92.3998 13.1488L93.9956 15.875L94.1624 15.7586C94.7494 15.3489 95.4559 15.0077 96.2847 14.737L96.287 14.7362C97.1322 14.4481 97.9271 14.3058 98.6727 14.3058C99.3699 14.3058 99.8654 14.432 100.187 14.6572C100.471 14.8569 100.657 15.3286 100.657 16.1831V17.021C100.383 16.8841 100.086 16.774 99.7647 16.6901C99.3228 16.5746 98.8546 16.5365 98.3613 16.574C97.386 16.5935 96.439 16.8005 95.5215 17.1941C94.5999 17.571 93.842 18.1012 93.2528 18.7864C92.6532 19.4837 92.3554 20.3263 92.3554 21.3034C92.3554 22.6387 92.8351 23.6802 93.8056 24.3995L93.807 24.4005C94.7831 25.1097 96.0093 25.4285 97.4705 25.3722L97.4737 25.3721C98.1495 25.3345 98.7983 25.2122 99.4194 25.0049L99.4242 25.0031C99.9565 24.8093 100.436 24.5526 100.861 24.2326C101 24.5921 101.204 24.8741 101.48 25.0639L101.485 25.0677L101.491 25.0711C101.843 25.2787 102.322 25.3724 102.906 25.3724C103.395 25.3724 103.85 25.3161 104.27 25.2018C104.698 25.1084 105.059 24.9949 105.349 24.8592L105.457 24.8086V22.4843L105.216 22.5552C104.909 22.6459 104.661 22.7054 104.47 22.7357C104.276 22.7667 104.167 22.7628 104.117 22.7491C104.105 22.7443 104.078 22.728 104.05 22.6556C104.02 22.5756 104 22.4497 104 22.267V16.1831C104 14.3643 103.566 13.0529 102.638 12.3205C101.73 11.5854 100.397 11.2333 98.6727 11.2333ZM57.5478 11.5636H54.0939V25.1797H57.5478V11.5636ZM79.0027 11.5636H75.5488V25.1797H79.0027V11.5636ZM64.2261 15.2335C64.7544 14.6362 65.4612 14.3333 66.3669 14.3333C67.2725 14.3333 68.0003 14.6363 68.5665 15.2378L68.5684 15.2398C69.1297 15.819 69.4227 16.6474 69.4227 17.7522C69.4227 18.8367 69.1307 19.6772 68.5656 20.2952C67.9995 20.896 67.272 21.1987 66.3669 21.1987C65.4622 21.1987 64.7561 20.8966 64.228 20.3006C63.715 19.6828 63.4485 18.8402 63.4485 17.7522C63.4485 16.6432 63.7162 15.8124 64.2261 15.2335ZM98.6285 19.3983C99.2533 19.3626 99.7554 19.4263 100.143 19.5784L100.146 19.5793C100.34 19.6524 100.475 19.7508 100.564 19.8679C100.652 19.9842 100.704 20.1317 100.712 20.3202L100.712 20.3225C100.728 20.6284 100.664 20.8905 100.526 21.1162C100.387 21.3433 100.165 21.5451 99.8476 21.7169L99.8457 21.7179C99.2196 22.0663 98.4082 22.2639 97.4016 22.2999L97.3998 22.3C96.8106 22.3268 96.3973 22.2438 96.1328 22.0802C95.8818 21.9249 95.7429 21.6836 95.7267 21.3237C95.7116 20.8753 95.9459 20.4511 96.5011 20.0515L96.5041 20.0492C97.0526 19.6373 97.7541 19.4163 98.6216 19.3986L98.625 19.3985L98.6285 19.3983Z" fill="white"/>
<path fill-rule="evenodd" clip-rule="evenodd" d="M154.433 5.17599H150.952V25.1787H154.433V5.17599ZM135.268 5.47881C134.685 5.47881 134.179 5.69235 133.76 6.112C133.341 6.53164 133.128 7.03767 133.128 7.62071C133.128 8.20375 133.341 8.70978 133.76 9.12942C134.179 9.54907 134.685 9.76261 135.268 9.76261C135.85 9.76261 136.356 9.54907 136.775 9.12942C137.194 8.70978 137.407 8.20375 137.407 7.62071C137.407 7.03767 137.194 6.53164 136.775 6.112C136.356 5.69235 135.85 5.47881 135.268 5.47881ZM131.641 5.53387H116.478V8.85416H122.277V25.1787H125.869V8.85416H131.641V5.53387ZM145.232 6.91031H141.778V11.5627H139.249V14.6077H141.778V21.7154C141.778 23.1641 142.119 24.2 142.874 24.7315L142.876 24.7329C143.617 25.2402 144.659 25.4815 145.979 25.4815C146.484 25.4815 146.989 25.4347 147.494 25.3413C147.996 25.2667 148.422 25.1631 148.768 25.0282L148.888 24.9817V21.7021L148.61 21.8539C148.425 21.955 148.155 22.0607 147.794 22.1692L147.791 22.17C147.46 22.2746 147.131 22.3264 146.803 22.3264C146.258 22.3264 145.862 22.2204 145.595 22.0321C145.375 21.8655 145.232 21.5209 145.232 20.9171V14.6077H148.888V11.5627H145.232V6.91031ZM163.216 11.2323C161.959 11.2323 160.835 11.5239 159.85 12.1116C158.864 12.6814 158.098 13.5072 157.552 14.5827C157.004 15.6425 156.734 16.9028 156.734 18.3569C156.734 20.6819 157.338 22.4719 158.576 23.6931L158.577 23.6942C159.809 24.8898 161.416 25.4815 163.381 25.4815C164.691 25.4815 165.851 25.2001 166.855 24.6312L166.856 24.6306C167.883 24.0402 168.739 23.093 169.429 21.8037L169.507 21.6573L166.91 19.8393L166.813 20.0367C166.419 20.8439 165.96 21.4414 165.44 21.841C164.93 22.2147 164.267 22.409 163.436 22.409C162.484 22.409 161.725 22.1453 161.143 21.6313C160.602 21.1368 160.268 20.3138 160.173 19.1224H169.204V18.2193C169.204 16.9121 168.97 15.7294 168.5 14.6745C168.029 13.6181 167.348 12.7826 166.457 12.1742C165.559 11.5433 164.476 11.2323 163.216 11.2323ZM137.022 11.5627H133.568V25.1787H137.022V11.5627ZM160.344 16.3527C160.53 15.5779 160.846 15.0157 161.276 14.646C161.768 14.2387 162.392 14.0296 163.161 14.0296C163.869 14.0296 164.433 14.2525 164.87 14.6902L164.872 14.6928L164.875 14.6952C165.291 15.0807 165.582 15.6281 165.738 16.3527H160.344Z" fill="white"/>
</svg>
