<svg width="260" height="49" viewBox="0 0 260 49" fill="none" xmlns="http://www.w3.org/2000/svg">
<path fill-rule="evenodd" clip-rule="evenodd" d="M13.1895 10.0521C14.638 9.1986 16.4632 9.55957 18.1205 9.78925C18.3344 9.8189 18.5528 9.83422 18.7748 9.83422C21.4355 9.83422 23.5924 7.63275 23.5924 4.91711C23.5924 2.20146 21.4355 0 18.7748 0C16.9374 0 15.3402 1.04984 14.5277 2.59386C13.8974 3.79169 13.2652 5.09043 12.1115 5.77027L1.20423 12.1976C0.458937 12.6368 -0.00018358 13.4484 -0.00018358 14.3268V33.6149C-0.00018358 34.4932 0.458935 35.3048 1.20423 35.744L9.35643 40.5479C10.2933 41.0999 11.4881 40.8295 12.1085 39.925V39.925C12.8103 38.9017 12.5023 37.4845 11.4425 36.86L6.12919 33.729C4.91809 33.0154 4.17202 31.6965 4.17202 30.2691V17.6725C4.17202 16.2451 4.91809 14.9262 6.12919 14.2126L13.1895 10.0521ZM18.7746 6.76102H18.7748C19.7725 6.76102 20.5814 5.93547 20.5814 4.91711C20.5814 3.89874 19.7725 3.07319 18.7748 3.07319C17.777 3.07319 16.9681 3.89874 16.9681 4.91711C16.9681 5.37579 17.1322 5.79535 17.4038 6.11799C17.7351 6.51162 18.2263 6.76097 18.7746 6.76102Z" fill="#0F4476"/>
<path fill-rule="evenodd" clip-rule="evenodd" d="M25.3214 38.9479C23.8173 39.8014 21.9219 39.4404 20.2008 39.2107C19.9786 39.1811 19.7518 39.1658 19.5214 39.1658C16.7583 39.1658 14.5184 41.3672 14.5184 44.0829C14.5184 46.7985 16.7583 49 19.5214 49C21.4294 49 23.088 47.9502 23.9318 46.4061C24.5863 45.2083 25.2428 43.9096 26.4409 43.2297L37.7677 36.8024C38.5417 36.3632 39.0184 35.5516 39.0184 34.6732V15.3851C39.0184 14.5068 38.5417 13.6952 37.7677 13.256L29.3019 8.45214C28.3291 7.90009 27.0883 8.17054 26.444 9.07505V9.07505C25.7153 10.0983 26.035 11.5155 27.1356 12.14L32.6533 15.271C33.911 15.9846 34.6858 17.3035 34.6858 18.7309V31.3275C34.6858 32.7549 33.911 34.0738 32.6533 34.7874L25.3214 38.9479ZM19.5216 42.239H19.5214C18.4852 42.239 17.6453 43.0645 17.6453 44.0829C17.6453 45.1013 18.4852 45.9268 19.5214 45.9268C20.5575 45.9268 21.3975 45.1013 21.3975 44.0829C21.3975 43.6242 21.2271 43.2046 20.9451 42.882C20.6011 42.4884 20.0909 42.239 19.5216 42.239Z" fill="#29A8D2"/>
<path fill-rule="evenodd" clip-rule="evenodd" d="M10.502 17.4877C11.4032 16.9797 12.5554 17.2811 13.0756 18.161L13.9855 19.6997C14.1642 20.002 14.0582 20.3885 13.7486 20.563C13.5484 20.6759 13.425 20.8845 13.425 21.1102V26.4284C13.425 27.0856 13.7841 27.6929 14.367 28.0215L19.0839 30.6806C19.2842 30.7935 19.5309 30.7935 19.7311 30.6806C20.0407 30.5061 20.4365 30.6096 20.6152 30.9119L21.5251 32.4506C22.0453 33.3305 21.7366 34.4555 20.8355 34.9635L20.6635 35.0604C19.8863 35.4986 18.9287 35.4986 18.1515 35.0604L10.3301 30.6513C9.55288 30.2131 9.0741 29.4034 9.0741 28.5271V19.7087C9.0741 18.8325 9.55288 18.0227 10.3301 17.5846L10.502 17.4877Z" fill="#29A8D2"/>
<path fill-rule="evenodd" clip-rule="evenodd" d="M25.2695 27.5651C25.0049 27.7132 24.9143 28.0414 25.067 28.2981L26.0373 29.9283C26.5632 30.8119 27.728 31.1146 28.6389 30.6045L28.6747 30.5844C29.4603 30.1444 29.9443 29.3313 29.9443 28.4512V19.5953C29.9443 18.7153 29.4603 17.9021 28.6747 17.4621L20.7682 13.0341C19.9826 12.5941 19.0146 12.5941 18.2289 13.0341L18.1932 13.0542C17.2823 13.5643 16.9702 14.6942 17.4961 15.5778L18.4664 17.208C18.6191 17.4646 18.9574 17.5525 19.222 17.4044C19.3931 17.3085 19.604 17.3085 19.7752 17.4044L24.5939 20.1031C25.1831 20.4331 25.5461 21.043 25.5461 21.703V27.1004C25.5461 27.2921 25.4407 27.4692 25.2695 27.5651Z" fill="#0F4476"/>
<path fill-rule="evenodd" clip-rule="evenodd" d="M170.119 7.92661H164.788V38.5557H170.119V7.92661ZM85.4351 8.39029C84.5428 8.39029 83.7687 8.71728 83.1271 9.35987C82.4855 10.0024 82.1593 10.7773 82.1593 11.6701C82.1593 12.5629 82.4855 13.3377 83.1271 13.9803C83.7687 14.6229 84.5428 14.9499 85.4351 14.9499C86.3274 14.9499 87.1015 14.6229 87.7431 13.9803C88.3847 13.3377 88.7108 12.5629 88.7108 11.6701C88.7108 10.7773 88.3847 10.0024 87.7431 9.35987C87.1015 8.71728 86.3274 8.39029 85.4351 8.39029ZM118.288 8.39029C117.396 8.39029 116.622 8.71727 115.98 9.35987C115.338 10.0024 115.012 10.7773 115.012 11.6701C115.012 12.5629 115.338 13.3377 115.98 13.9803C116.622 14.6229 117.396 14.9499 118.288 14.9499C119.18 14.9499 119.954 14.6229 120.596 13.9803C121.238 13.3377 121.564 12.5629 121.564 11.6701C121.564 10.7773 121.238 10.0024 120.596 9.35987C119.954 8.71728 119.18 8.39029 118.288 8.39029ZM64.0178 8.4746H54.2603V38.5557H64.0178C66.9995 38.5557 69.586 38.0011 71.7675 36.8799L71.7688 36.8793C73.982 35.7278 75.6794 34.0273 76.8565 31.785C78.0627 29.5409 78.6577 26.7798 78.6577 23.5152C78.6577 20.2228 78.0628 17.4475 76.8565 15.2031C75.6792 12.9604 73.9812 11.2735 71.7668 10.1501C69.5855 9.02914 66.9992 8.4746 64.0178 8.4746ZM133.545 10.5823H128.257V17.7062H124.384V22.3688H128.257V33.2526C128.257 35.4709 128.779 37.0571 129.936 37.871L129.939 37.8731C131.072 38.6499 132.668 39.0194 134.689 39.0194C135.463 39.0194 136.236 38.9478 137.009 38.8048C137.778 38.6904 138.43 38.5319 138.96 38.3253L139.143 38.2541V33.2322L138.718 33.4646C138.435 33.6194 138.021 33.7813 137.468 33.9474L137.464 33.9486C136.958 34.1088 136.454 34.1881 135.952 34.1881C135.116 34.1881 134.511 34.0258 134.101 33.7375C133.764 33.4824 133.545 32.9547 133.545 32.0301V22.3688H139.143V17.7062H133.545V10.5823ZM59.6753 33.4715V13.5588H63.639C66.6121 13.5588 68.8866 14.4116 70.5032 16.0846L70.5048 16.0863C72.1468 17.7577 72.9901 20.2177 72.9901 23.5152C72.9901 26.7833 72.1472 29.2452 70.5032 30.9457C68.8866 32.6187 66.6121 33.4715 63.639 33.4715H59.6753ZM101.247 17.2003C99.4384 17.2003 97.8065 17.5744 96.3579 18.3289L96.3558 18.33C94.9288 19.0883 93.809 20.2116 92.9978 21.6913C92.183 23.1777 91.784 25.0129 91.784 27.1825C91.784 29.325 92.1833 31.1588 92.9967 32.6716L92.9978 32.6737C93.8085 34.1525 94.9271 35.2889 96.3517 36.0751L96.3579 36.0783C97.8065 36.8327 99.4384 37.2068 101.247 37.2068C103.097 37.2068 104.676 36.6469 105.968 35.5248V35.9925C105.968 38.1909 105.577 39.7283 104.85 40.6644C104.134 41.5864 103.01 42.0708 101.415 42.0708C100.19 42.0708 99.1928 41.8254 98.4068 41.3531C97.6174 40.8788 96.9488 40.1482 96.4071 39.1444L96.2579 38.868L91.9375 41.7209L92.0766 41.9557C93.0816 43.6525 94.3528 44.9155 95.8933 45.7305C97.431 46.5441 99.2754 46.9442 101.415 46.9442C104.725 46.9442 107.219 45.9852 108.834 44.0158C110.461 42.0653 111.257 39.3788 111.257 35.9925V17.7062H106.582L106.447 19.2236C105.075 17.8739 103.335 17.2003 101.247 17.2003ZM151.094 17.2003C149.323 17.2003 147.609 17.4863 145.951 18.0584C144.308 18.5979 142.897 19.2392 141.722 19.9851L141.489 20.1334L143.932 24.308L144.188 24.1297C145.086 23.5023 146.168 22.9799 147.437 22.5654L147.441 22.5642C148.735 22.123 149.952 21.9052 151.094 21.9052C152.162 21.9052 152.92 22.0984 153.412 22.4432C153.848 22.749 154.132 23.4712 154.132 24.7798V26.0628C153.714 25.8532 153.258 25.6846 152.766 25.556C152.09 25.3793 151.373 25.3209 150.617 25.3783C149.124 25.4081 147.674 25.7251 146.269 26.3278C144.858 26.905 143.697 27.7168 142.795 28.7661C141.877 29.8338 141.421 31.1241 141.421 32.6203C141.421 34.6649 142.155 36.2597 143.641 37.361L143.643 37.3626C145.138 38.4487 147.016 38.9368 149.253 38.8506L149.258 38.8503C150.293 38.7928 151.286 38.6056 152.237 38.2881L152.245 38.2854C153.06 37.9886 153.794 37.5956 154.444 37.1056C154.658 37.6559 154.97 38.0878 155.392 38.3785L155.401 38.3843L155.409 38.3894C155.949 38.7074 156.681 38.8508 157.576 38.8508C158.325 38.8508 159.022 38.7646 159.665 38.5897C160.32 38.4467 160.873 38.2729 161.317 38.065L161.483 37.9876V34.4285L161.114 34.5371C160.643 34.6759 160.263 34.767 159.972 34.8135C159.675 34.8608 159.507 34.8549 159.431 34.834C159.412 34.8266 159.37 34.8016 159.329 34.6907C159.283 34.5682 159.252 34.3755 159.252 34.0956V24.7798C159.252 21.9947 158.587 19.9866 157.166 18.8651C155.775 17.7394 153.735 17.2003 151.094 17.2003ZM88.1216 17.7062H82.8328V38.5557H88.1216V17.7062ZM120.974 17.7062H115.686V38.5557H120.974V17.7062ZM98.3477 23.3257C99.1567 22.411 100.239 21.9473 101.626 21.9473C103.013 21.9473 104.127 22.4113 104.994 23.3323L104.997 23.3353C105.856 24.2222 106.305 25.4907 106.305 27.1825C106.305 28.843 105.858 30.1301 104.992 31.0764C104.126 31.9964 103.012 32.4598 101.626 32.4598C100.241 32.4598 99.1592 31.9972 98.3506 31.0847C97.565 30.1387 97.157 28.8484 97.157 27.1825C97.157 25.4843 97.567 24.2121 98.3477 23.3257ZM151.026 29.703C151.983 29.6483 152.752 29.7459 153.346 29.9788L153.35 29.9802C153.648 30.0921 153.854 30.2428 153.99 30.422C154.125 30.6001 154.204 30.826 154.216 31.1147L154.216 31.1182C154.242 31.5866 154.144 31.988 153.932 32.3335C153.719 32.6812 153.379 32.9903 152.893 33.2533L152.89 33.2549C151.932 33.7883 150.689 34.091 149.148 34.1462L149.145 34.1463C148.243 34.1873 147.61 34.0602 147.205 33.8096C146.82 33.5718 146.608 33.2024 146.583 32.6513C146.56 31.9646 146.919 31.3151 147.769 30.7032L147.773 30.6997C148.613 30.0689 149.687 29.7306 151.016 29.7035L151.021 29.7033L151.026 29.703Z" fill="#0F4476"/>
<path fill-rule="evenodd" clip-rule="evenodd" d="M236.475 7.92563H231.145V38.5547H236.475V7.92563ZM207.128 8.38932C206.236 8.38932 205.462 8.7163 204.82 9.35889C204.178 10.0015 203.852 10.7763 203.852 11.6691C203.852 12.5619 204.178 13.3367 204.82 13.9793C205.462 14.6219 206.236 14.9489 207.128 14.9489C208.02 14.9489 208.794 14.6219 209.436 13.9793C210.078 13.3367 210.404 12.5619 210.404 11.6691C210.404 10.7763 210.078 10.0015 209.436 9.35889C208.794 8.7163 208.02 8.38932 207.128 8.38932ZM201.574 8.47362H178.355V13.5578H187.236V38.5547H192.736V13.5578H201.574V8.47362ZM222.385 10.5813H217.097V17.7052H213.224V22.3679H217.097V33.2516C217.097 35.4699 217.619 37.0561 218.776 37.87L218.779 37.8721C219.912 38.6489 221.508 39.0184 223.529 39.0184C224.303 39.0184 225.076 38.9468 225.849 38.8038C226.618 38.6895 227.27 38.5309 227.8 38.3244L227.983 38.2531V33.2313L227.558 33.4636C227.274 33.6184 226.861 33.7803 226.308 33.9464L226.304 33.9476C225.798 34.1078 225.294 34.1872 224.792 34.1872C223.956 34.1872 223.351 34.0249 222.941 33.7366C222.604 33.4815 222.385 32.9538 222.385 32.0292V22.3679H227.983V17.7052H222.385V10.5813ZM249.924 17.1994C247.999 17.1994 246.278 17.6459 244.77 18.5457C243.26 19.4183 242.087 20.6828 241.25 22.3296C240.411 23.9524 239.998 25.8822 239.998 28.1089C239.998 31.6691 240.923 34.41 242.819 36.28L242.821 36.2816C244.707 38.1123 247.168 39.0184 250.177 39.0184C252.183 39.0184 253.959 38.5875 255.496 37.7164L255.497 37.7155C257.07 36.8115 258.38 35.361 259.437 33.3868L259.557 33.1626L255.58 30.3788L255.432 30.681C254.829 31.917 254.125 32.832 253.329 33.444C252.548 34.0162 251.533 34.3136 250.261 34.3136C248.803 34.3136 247.641 33.9098 246.749 33.1228C245.921 32.3656 245.409 31.1054 245.265 29.281H259.092V27.8981C259.092 25.8965 258.735 24.0855 258.015 22.4702C257.294 20.8526 256.252 19.5732 254.886 18.6416C253.511 17.6756 251.852 17.1994 249.924 17.1994ZM209.814 17.7052H204.526V38.5547H209.814V17.7052ZM245.525 25.0399C245.812 23.8536 246.294 22.9927 246.953 22.4266C247.706 21.8029 248.662 21.4826 249.84 21.4826C250.923 21.4826 251.787 21.824 252.456 22.4943L252.46 22.4982L252.464 22.5019C253.101 23.0922 253.547 23.9305 253.785 25.0399H245.525Z" fill="#29A8D2"/>
</svg>
